<svg xmlns="http://www.w3.org/2000/svg" viewBox="0 0 64 64">
  <rect width="64" height="64" rx="14" fill="#6b4526"/>
  <g fill="none" stroke="#f5efe0" stroke-width="2.4" stroke-linecap="round" stroke-linejoin="round">
    <path d="M24 26c-4-5-3-11 2-13"/>
    <path d="M40 26c4-5 3-11-2-13"/>
    <path d="M22 26c-7-3-13 0-13 5 0 3 5 4 9 3"/>
    <path d="M42 26c7-3 13 0 13 5 0 3-5 4-9 3"/>
    <path d="M22 26c-2 9 1 16 5 21 3 3 4 4 5 4s2-1 5-4c4-5 7-12 5-21"/>
    <path d="M28 46c2 2 6 2 8 0"/>
  </g>
  <g fill="#f5efe0">
    <circle cx="27" cy="31" r="1.6"/>
    <circle cx="37" cy="31" r="1.6"/>
    <circle cx="30" cy="42" r="1.2"/>
    <circle cx="34" cy="42" r="1.2"/>
  </g>
</svg>
